<?xml version="1.0" encoding="UTF-8" standalone="no"?>
<svg
   width="493.70871"
   zoomAndPan="magnify"
   viewBox="0 0 370.28153 330.0625"
   height="440.08334"
   preserveAspectRatio="xMidYMid"
   version="1.0"
   id="svg6624"
   sodipodi:docname="Electricity.svg"
   xmlns:inkscape="http://www.inkscape.org/namespaces/inkscape"
   xmlns:sodipodi="http://sodipodi.sourceforge.net/DTD/sodipodi-0.dtd"
   xmlns="http://www.w3.org/2000/svg"
   xmlns:svg="http://www.w3.org/2000/svg">
  <sodipodi:namedview
     id="namedview6626"
     pagecolor="#ffffff"
     bordercolor="#000000"
     borderopacity="0.25"
     inkscape:showpageshadow="2"
     inkscape:pageopacity="0.0"
     inkscape:pagecheckerboard="0"
     inkscape:deskcolor="#d1d1d1"
     showgrid="false" />
  <defs
     id="defs6608">
    <clipPath
       id="26841da287">
      <path
         d="M 2,20 H 373 V 350.41406 H 2 Z m 0,0"
         clip-rule="nonzero"
         id="path6596" />
    </clipPath>
    <clipPath
       id="067dbacdaa">
      <path
         d="M 207.96484,31.925781 369.49219,314.59766 c 4.23437,7.41015 4.20312,16.51171 -0.0781,23.89453 -4.28515,7.3789 -12.17187,11.92187 -20.70703,11.92187 H 26.292969 c -8.535157,0 -16.421875,-4.54297 -20.707031,-11.92187 -4.28125,-7.38282 -4.3125,-16.48438 -0.078126,-23.89453 L 167.03516,31.925781 c 4.19531,-7.34375 12.00781,-11.878906 20.46484,-11.878906 8.45703,0 16.26953,4.535156 20.46484,11.878906 z m 0,0"
         clip-rule="nonzero"
         id="path6599" />
    </clipPath>
    <clipPath
       id="f70ed8953f">
      <path
         d="M 2,20 H 373 V 350.10937 H 2 Z m 0,0"
         clip-rule="nonzero"
         id="path6602" />
    </clipPath>
    <clipPath
       id="f758608002">
      <path
         d="M 207.96094,31.925781 369.48047,314.58984 c 4.23437,7.41016 4.20312,16.51172 -0.0781,23.89063 -4.28125,7.3789 -12.17187,11.92187 -20.70312,11.92187 H 26.289062 c -8.53125,0 -16.421874,-4.54297 -20.703124,-11.92187 C 1.304688,331.10156 1.273438,322 5.507812,314.58984 L 167.02734,31.925781 c 4.19922,-7.34375 12.00782,-11.878906 20.46875,-11.878906 8.45703,0 16.26563,4.535156 20.46485,11.878906 z m 0,0"
         clip-rule="nonzero"
         id="path6605" />
    </clipPath>
  </defs>
  <g
     clip-path="url(#26841da287)"
     id="g6614"
     transform="translate(-2.3533842,-20.046875)">
    <g
       clip-path="url(#067dbacdaa)"
       id="g6612">
      <path
         fill="#f8f503"
         d="M -14.957031,-3.890625 H 390.55078 V 350.41406 H -14.957031 Z m 0,0"
         fill-opacity="1"
         fill-rule="nonzero"
         id="path6610" />
    </g>
  </g>
  <g
     clip-path="url(#f70ed8953f)"
     id="g6620"
     transform="translate(-2.3533842,-20.046875)">
    <g
       clip-path="url(#f758608002)"
       id="g6618">
      <path
         stroke-linecap="butt"
         transform="matrix(0.75,0,0,0.75,-14.958844,-3.88957)"
         fill="none"
         stroke-linejoin="miter"
         d="M 297.2264,47.753805 512.58578,424.63925 c 5.64584,9.8802 5.60417,22.01562 -0.10416,31.85417 -5.70834,9.83854 -16.22917,15.89583 -27.60417,15.89583 H 54.997213 c -11.375001,0 -21.895835,-6.05729 -27.604169,-15.89583 -5.708333,-9.83855 -5.75,-21.97397 -0.104166,-31.85417 L 242.64827,47.753805 c 5.59895,-9.791667 16.01041,-15.838543 27.29166,-15.838543 11.27605,0 21.68751,6.046876 27.28647,15.838543 z m 0,0"
         stroke="#171717"
         stroke-width="106"
         stroke-opacity="1"
         stroke-miterlimit="4"
         id="path6616" />
    </g>
  </g>
  <path
     fill="#171717"
     d="m 170.21693,103.45312 c 4.57422,3.65234 9.05078,7.46875 13.42188,11.44922 6.57812,0.39453 13.15625,0.52734 19.74218,0.39453 -7.5,19.19922 -15.39453,38.28125 -23.6875,57.24609 0.13282,0.39453 0.26172,0.78907 0.39454,1.1836 15.07421,-7.46875 30.20703,-14.83985 45.40234,-22.10938 0.89062,1.2461 1.02344,2.5625 0.39453,3.94922 -6.71484,27.90625 -13.42578,55.80859 -20.13672,83.69922 4.41016,-0.28516 8.88672,-0.28516 13.42578,0 -11.30078,14.85156 -22.75,29.58984 -34.34765,44.21484 -6.20313,-15.58203 -11.86328,-31.375 -16.97657,-47.375 3.94922,0.23828 7.76563,1.02735 11.44922,2.36719 1.11719,-13.16406 1.90625,-26.32031 2.36719,-39.47656 -16.09766,8.90234 -32.54687,17.0625 -49.34766,24.47656 12.15625,-40.16016 24.78907,-80.16406 37.89844,-120.01953 z m 0,0"
     fill-opacity="1"
     fill-rule="evenodd"
     id="path6622" />
</svg>
